# xmcd CD database file
#
# Track frame offsets:
#	150
#	25532
#	48457
#	66740
#	86545
#	105992
#	127592
#	154357
#	176785
#	199377
#	228045
#	245237
#
# Disc length: 3741 seconds
#
# Revision: 4
# Processed by: cddbd v1.4PL0 Copyright (c) Steve Scherf et al.
# Submitted via: CDex 1.50beta9
#
DISCID=9e0e9b0c
DTITLE=Eddy Mitchell - Live 2000 [CD 2)
DYEAR=2000
DGENRE=Rock
TTITLE0=J'ai oublier de l'oublier
TTITLE1=Un portrait de Norman Rockwell
TTITLE2=Ton homme de paille
TTITLE3=Le blues du blanc
TTITLE4=Destination terre
TTITLE5=Couleur menthe à l'eau
TTITLE6=La dernière séance
TTITLE7=18 ans demain
TTITLE8=Lèche-bottes blues
TTITLE9=Pas de boggie woogie
TTITLE10=En attendant Eddy
TTITLE11=Décrocher les étoiles
EXTD=YEAR: 2000
EXTT0=
EXTT1=
EXTT2=
EXTT3=
EXTT4=
EXTT5=
EXTT6=
EXTT7=
EXTT8=
EXTT9=
EXTT10=
EXTT11=
PLAYORDER=
